<svg xmlns="http://www.w3.org/2000/svg" viewBox="0 0 256 256"><defs><linearGradient id="a" x1="50%" x2="50%" y1="0%" y2="100%"><stop offset="0" stop-color="#55C5EA"/><stop offset="1" stop-color="#512BD4"/></linearGradient></defs><rect width="256" height="256" fill="url(#a)" rx="28"/><path fill="#fff" d="M46.902 178.082c-2.148 0-3.975-.742-5.481-2.227-1.506-1.484-2.259-3.284-2.259-5.398 0-2.113.753-3.914 2.26-5.398 1.505-1.485 3.332-2.227 5.48-2.227 2.18 0 4.023.742 5.529 2.227 1.506 1.484 2.259 3.285 2.259 5.398 0 2.114-.753 3.914-2.26 5.398-1.505 1.485-3.348 2.227-5.528 2.227zm95.62-2.602h-14.49l-36.333-56.712a32.414 32.414 0 0 1-3.004-6.373h-.418c.557 2.66.835 8.38.835 17.161V175.48h-12.998V86.81h15.556l34.967 55.197c1.95 3.074 3.284 5.366 4.003 6.875h.28c-.695-3.214-1.043-9.292-1.043-18.232V86.811h12.998v88.67h-.353zm36.776 2.602c-10.154 0-18.2-3.186-24.14-9.558-5.94-6.371-8.91-14.913-8.91-25.627 0-11.353 3.11-20.272 9.329-26.758 6.22-6.485 14.623-9.728 25.21-9.728 9.6 0 17.18 3.06 22.738 9.182 5.56 6.121 8.34 14.316 8.34 24.587 0 11.13-3.06 19.945-9.182 26.445-6.12 6.5-14.393 9.749-24.816 9.749-.19-.003-.378-.174-.568-.292z"/></svg>
